REM DIRINDEX 1\2,1\3,1\4
REM DIRNAME folder01,folder02,folder03,folder04
TITLE ""
FILE "DISC3Track41.mp3" MP3
  TRACK 01 AUDIO
    TITLE "0:"
    INDEX 01 00:00:00
  TRACK 02 AUDIO
    TITLE "4:cjc105_6441"
    INDEX 01 00:00:11
  TRACK 03 AUDIO
    TITLE "0:"
    INDEX 01 00:04:31
  TRACK 04 AUDIO
    TITLE "4:cjc105_6442"
    INDEX 01 00:05:03
  TRACK 05 AUDIO
    TITLE "0:"
    INDEX 01 00:07:45
  TRACK 06 AUDIO
    TITLE "2:cjc105_6443"
    INDEX 01 00:08:24
  TRACK 07 AUDIO
    TITLE "3:cjc105_6444"
    INDEX 01 00:10:00
  TRACK 08 AUDIO
    TITLE "0:"
    INDEX 01 00:11:64
  TRACK 09 AUDIO
    TITLE "2:cjc105_6445"
    INDEX 01 00:12:12
  TRACK 10 AUDIO
    TITLE "3:cjc105_6446"
    INDEX 01 00:13:61
  TRACK 11 AUDIO
    TITLE "0:"
    INDEX 01 00:14:70
  TRACK 12 AUDIO
    TITLE "2:cjc105_6447"
    INDEX 01 00:15:13
  TRACK 13 AUDIO
    TITLE "3:cjc105_6448"
    INDEX 01 00:16:67
  TRACK 14 AUDIO
    TITLE "0:"
    INDEX 01 00:18:31
  TRACK 15 AUDIO
    TITLE "2:cjc105_6449"
    INDEX 01 00:18:54
  TRACK 16 AUDIO
    TITLE "3:cjc105_6450"
    INDEX 01 00:20:12
  TRACK 17 AUDIO
    TITLE "0:"
    INDEX 01 00:21:55
  TRACK 18 AUDIO
    TITLE "2:cjc105_6451"
    INDEX 01 00:21:72
  TRACK 19 AUDIO
    TITLE "3:cjc105_6452"
    INDEX 01 00:23:65
  TRACK 20 AUDIO
    TITLE "0:"
    INDEX 01 00:25:25
  TRACK 21 AUDIO
    TITLE "2:cjc105_6453"
    INDEX 01 00:25:48
  TRACK 22 AUDIO
    TITLE "3:cjc105_6454"
    INDEX 01 00:27:00
  TRACK 23 AUDIO
    TITLE "0:"
    INDEX 01 00:28:23
  TRACK 24 AUDIO
    TITLE "2:cjc105_6455"
    INDEX 01 00:28:47
  TRACK 25 AUDIO
    TITLE "3:cjc105_6456"
    INDEX 01 00:30:26
  TRACK 26 AUDIO
    TITLE "0:"
    INDEX 01 00:31:51
  TRACK 27 AUDIO
    TITLE "2:cjc105_6457"
    INDEX 01 00:32:01
  TRACK 28 AUDIO
    TITLE "3:cjc105_6458"
    INDEX 01 00:33:38
  TRACK 29 AUDIO
    TITLE "0:"
    INDEX 01 00:35:12
  TRACK 30 AUDIO
    TITLE "2:cjc105_6459"
    INDEX 01 00:35:35
  TRACK 31 AUDIO
    TITLE "3:cjc105_6460"
    INDEX 01 00:37:07
  TRACK 32 AUDIO
    TITLE "0:"
    INDEX 01 00:38:30
  TRACK 33 AUDIO
    TITLE "2:cjc105_6461"
    INDEX 01 00:38:45
  TRACK 34 AUDIO
    TITLE "3:cjc105_6462"
    INDEX 01 00:40:38
  TRACK 35 AUDIO
    TITLE "0:"
    INDEX 01 00:42:33
  TRACK 36 AUDIO
    TITLE "2:cjc105_6463"
    INDEX 01 00:42:66
  TRACK 37 AUDIO
    TITLE "3:cjc105_6464"
    INDEX 01 00:44:71
  TRACK 38 AUDIO
    TITLE "0:"
    INDEX 01 00:46:13
  TRACK 39 AUDIO
    TITLE "2:cjc105_6465"
    INDEX 01 00:46:31
  TRACK 40 AUDIO
    TITLE "3:cjc105_6466"
    INDEX 01 00:47:56
  TRACK 41 AUDIO
    TITLE "0:"
    INDEX 01 00:48:48
  TRACK 42 AUDIO
    TITLE "2:cjc105_6467"
    INDEX 01 00:48:61
  TRACK 43 AUDIO
    TITLE "3:cjc105_6468"
    INDEX 01 00:51:03
  TRACK 44 AUDIO
    TITLE "0:"
    INDEX 01 00:52:45
  TRACK 45 AUDIO
    TITLE "2:cjc105_6469"
    INDEX 01 00:52:69
  TRACK 46 AUDIO
    TITLE "3:cjc105_6470"
    INDEX 01 00:54:17
  TRACK 47 AUDIO
    TITLE "0:"
    INDEX 01 00:55:46
  TRACK 48 AUDIO
    TITLE "2:cjc105_6471"
    INDEX 01 00:55:69
  TRACK 49 AUDIO
    TITLE "3:cjc105_6472"
    INDEX 01 00:57:70
  TRACK 50 AUDIO
    TITLE "0:"
    INDEX 01 00:59:67
  TRACK 51 AUDIO
    TITLE "2:cjc105_6473"
    INDEX 01 01:00:10
  TRACK 52 AUDIO
    TITLE "3:cjc105_6474"
    INDEX 01 01:01:17
  TRACK 53 AUDIO
    TITLE "0:"
    INDEX 01 01:02:34
  TRACK 54 AUDIO
    TITLE "2:cjc105_6475"
    INDEX 01 01:02:50
  TRACK 55 AUDIO
    TITLE "3:cjc105_6476"
    INDEX 01 01:04:39
  TRACK 56 AUDIO
    TITLE "0:"
    INDEX 01 01:05:64
  TRACK 57 AUDIO
    TITLE "2:cjc105_6477"
    INDEX 01 01:06:26
  TRACK 58 AUDIO
    TITLE "3:cjc105_6478"
    INDEX 01 01:08:07
  TRACK 59 AUDIO
    TITLE "0:"
    INDEX 01 01:09:57
  TRACK 60 AUDIO
    TITLE "2:cjc105_6479"
    INDEX 01 01:10:04
  TRACK 61 AUDIO
    TITLE "3:cjc105_6480"
    INDEX 01 01:11:07
  TRACK 62 AUDIO
    TITLE "0:"
    INDEX 01 01:12:19
  TRACK 63 AUDIO
    TITLE "2:cjc105_6481"
    INDEX 01 01:12:36
  TRACK 64 AUDIO
    TITLE "3:cjc105_6482"
    INDEX 01 01:14:33
  TRACK 65 AUDIO
    TITLE "0:"
    INDEX 01 01:15:70
  TRACK 66 AUDIO
    TITLE "2:cjc105_6483"
    INDEX 01 01:16:18
  TRACK 67 AUDIO
    TITLE "3:cjc105_6484"
    INDEX 01 01:18:02
  TRACK 68 AUDIO
    TITLE "0:"
    INDEX 01 01:20:02
  TRACK 69 AUDIO
    TITLE "2:cjc105_6485"
    INDEX 01 01:20:20
  TRACK 70 AUDIO
    TITLE "3:cjc105_6486"
    INDEX 01 01:21:55
  TRACK 71 AUDIO
    TITLE "0:"
    INDEX 01 01:22:66
  TRACK 72 AUDIO
    TITLE "2:cjc105_6487"
    INDEX 01 01:23:09
  TRACK 73 AUDIO
    TITLE "3:cjc105_6488"
    INDEX 01 01:24:36
  TRACK 74 AUDIO
    TITLE "0:"
    INDEX 01 01:25:72
  TRACK 75 AUDIO
    TITLE "2:cjc105_6489"
    INDEX 01 01:26:15
  TRACK 76 AUDIO
    TITLE "3:cjc105_6490"
    INDEX 01 01:27:71
  TRACK 77 AUDIO
    TITLE "0:"
    INDEX 01 01:29:21
  TRACK 78 AUDIO
    TITLE "2:cjc105_6491"
    INDEX 01 01:29:45
  TRACK 79 AUDIO
    TITLE "3:cjc105_6492"
    INDEX 01 01:31:38
  TRACK 80 AUDIO
    TITLE "0:"
    INDEX 01 01:32:68
  TRACK 81 AUDIO
    TITLE "2:cjc105_6493"
    INDEX 01 01:33:11
  TRACK 82 AUDIO
    TITLE "3:cjc105_6494"
    INDEX 01 01:34:52
  TRACK 83 AUDIO
    TITLE "0:"
    INDEX 01 01:36:11
  TRACK 84 AUDIO
    TITLE "2:cjc105_6495"
    INDEX 01 01:36:33
  TRACK 85 AUDIO
    TITLE "3:cjc105_6496"
    INDEX 01 01:38:63
  TRACK 86 AUDIO
    TITLE "0:"
    INDEX 01 01:40:50
  TRACK 87 AUDIO
    TITLE "2:cjc105_6497"
    INDEX 01 01:40:72
  TRACK 88 AUDIO
    TITLE "3:cjc105_6498"
    INDEX 01 01:42:61
  TRACK 89 AUDIO
    TITLE "0:"
    INDEX 01 01:44:19
  TRACK 90 AUDIO
    TITLE "2:cjc105_6499"
    INDEX 01 01:44:34
  TRACK 91 AUDIO
    TITLE "3:cjc105_6500"
    INDEX 01 01:45:49
  TRACK 92 AUDIO
    TITLE "0:"
    INDEX 01 01:46:55
  TRACK 93 AUDIO
    TITLE "2:cjc105_6501"
    INDEX 01 01:46:70
  TRACK 94 AUDIO
    TITLE "3:cjc105_6502"
    INDEX 01 01:48:28
  TRACK 95 AUDIO
    TITLE "0:"
    INDEX 01 01:50:13
  TRACK 96 AUDIO
    TITLE "2:cjc105_6503"
    INDEX 01 01:50:31
  TRACK 97 AUDIO
    TITLE "3:cjc105_6504"
    INDEX 01 01:51:50
  TRACK 98 AUDIO
    TITLE "0:"
    INDEX 01 01:52:67
  TRACK 99 AUDIO
    TITLE "2:cjc105_6505"
    INDEX 01 01:53:12
  TRACK 100 AUDIO
    TITLE "3:cjc105_6506"
    INDEX 01 01:54:56
  TRACK 101 AUDIO
    TITLE "0:"
    INDEX 01 01:56:04
  TRACK 102 AUDIO
    TITLE "2:cjc105_6507"
    INDEX 01 01:56:22
  TRACK 103 AUDIO
    TITLE "3:cjc105_6508"
    INDEX 01 01:57:70
  TRACK 104 AUDIO
    TITLE "0:"
    INDEX 01 01:59:30
  TRACK 105 AUDIO
    TITLE "2:cjc105_6509"
    INDEX 01 01:59:53
  TRACK 106 AUDIO
    TITLE "3:cjc105_6510"
    INDEX 01 02:01:31
  TRACK 107 AUDIO
    TITLE "0:"
    INDEX 01 02:02:69
  TRACK 108 AUDIO
    TITLE "2:cjc105_6511"
    INDEX 01 02:03:12
  TRACK 109 AUDIO
    TITLE "3:cjc105_6512"
    INDEX 01 02:04:62
  TRACK 110 AUDIO
    TITLE "0:"
    INDEX 01 02:06:30
  TRACK 111 AUDIO
    TITLE "2:cjc105_6513"
    INDEX 01 02:06:54
  TRACK 112 AUDIO
    TITLE "3:cjc105_6514"
    INDEX 01 02:08:29
  TRACK 113 AUDIO
    TITLE "0:"
    INDEX 01 02:10:24
  TRACK 114 AUDIO
    TITLE "2:cjc105_6515"
    INDEX 01 02:10:45
  TRACK 115 AUDIO
    TITLE "3:cjc105_6516"
    INDEX 01 02:12:44
  TRACK 116 AUDIO
    TITLE "0:"
    INDEX 01 02:15:07
  TRACK 117 AUDIO
    TITLE "2:cjc105_6517"
    INDEX 01 02:15:29
  TRACK 118 AUDIO
    TITLE "3:cjc105_6518"
    INDEX 01 02:16:73
  TRACK 119 AUDIO
    TITLE "0:"
    INDEX 01 02:18:18
  TRACK 120 AUDIO
    TITLE "2:cjc105_6519"
    INDEX 01 02:18:31
  TRACK 121 AUDIO
    TITLE "3:cjc105_6520"
    INDEX 01 02:20:11
  TRACK 122 AUDIO
    TITLE "0:"
    INDEX 01 02:21:33
  TRACK 123 AUDIO
    TITLE "2:cjc105_6521"
    INDEX 01 02:21:55
  TRACK 124 AUDIO
    TITLE "3:cjc105_6522"
    INDEX 01 02:23:21
  TRACK 125 AUDIO
    TITLE "0:"
    INDEX 01 02:24:40
  TRACK 126 AUDIO
    TITLE "2:cjc105_6523"
    INDEX 01 02:24:65
  TRACK 127 AUDIO
    TITLE "3:cjc105_6524"
    INDEX 01 02:26:19
  TRACK 128 AUDIO
    TITLE "0:"
    INDEX 01 02:27:42
  TRACK 129 AUDIO
    TITLE "2:cjc105_6525"
    INDEX 01 02:27:69
  TRACK 130 AUDIO
    TITLE "3:cjc105_6526"
    INDEX 01 02:29:68
  TRACK 131 AUDIO
    TITLE "0:"
    INDEX 01 02:31:30
  TRACK 132 AUDIO
    TITLE "2:cjc105_6527"
    INDEX 01 02:31:53
  TRACK 133 AUDIO
    TITLE "3:cjc105_6528"
    INDEX 01 02:33:25
  TRACK 134 AUDIO
    TITLE "0:"
    INDEX 01 02:34:32
  TRACK 135 AUDIO
    TITLE "2:cjc105_6529"
    INDEX 01 02:34:52
  TRACK 136 AUDIO
    TITLE "3:cjc105_6530"
    INDEX 01 02:36:04
  TRACK 137 AUDIO
    TITLE "0:"
    INDEX 01 02:38:12
  TRACK 138 AUDIO
    TITLE "2:cjc105_6531"
    INDEX 01 02:38:34
  TRACK 139 AUDIO
    TITLE "3:cjc105_6532"
    INDEX 01 02:40:19
  TRACK 140 AUDIO
    TITLE "0:"
    INDEX 01 02:41:40
  TRACK 141 AUDIO
    TITLE "2:cjc105_6533"
    INDEX 01 02:41:64
  TRACK 142 AUDIO
    TITLE "3:cjc105_6534"
    INDEX 01 02:43:33
  TRACK 143 AUDIO
    TITLE "0:"
    INDEX 01 02:44:66
  TRACK 144 AUDIO
    TITLE "2:cjc105_6535"
    INDEX 01 02:45:07
  TRACK 145 AUDIO
    TITLE "3:cjc105_6536"
    INDEX 01 02:46:49
  TRACK 146 AUDIO
    TITLE "0:"
    INDEX 01 02:48:15
  TRACK 147 AUDIO
    TITLE "2:cjc105_6537"
    INDEX 01 02:48:38
  TRACK 148 AUDIO
    TITLE "3:cjc105_6538"
    INDEX 01 02:50:14
  TRACK 149 AUDIO
    TITLE "0:"
    INDEX 01 02:51:35
  TRACK 150 AUDIO
    TITLE "2:cjc105_6539"
    INDEX 01 02:51:48
  TRACK 151 AUDIO
    TITLE "3:cjc105_6540"
    INDEX 01 02:53:26
  TRACK 152 AUDIO
    TITLE "0:"
    INDEX 01 02:55:13
  TRACK 153 AUDIO
    TITLE "2:cjc105_6541"
    INDEX 01 02:55:36
  TRACK 154 AUDIO
    TITLE "3:cjc105_6542"
    INDEX 01 02:57:14
  TRACK 155 AUDIO
    TITLE "0:"
    INDEX 01 02:58:56
  TRACK 156 AUDIO
    TITLE "2:cjc105_6543"
    INDEX 01 02:59:01
  TRACK 157 AUDIO
    TITLE "3:cjc105_6544"
    INDEX 01 03:00:49
  TRACK 158 AUDIO
    TITLE "0:"
    INDEX 01 03:02:01
  TRACK 159 AUDIO
    TITLE "2:cjc105_6545"
    INDEX 01 03:02:27
  TRACK 160 AUDIO
    TITLE "3:cjc105_6546"
    INDEX 01 03:04:49
  TRACK 161 AUDIO
    TITLE "0:"
    INDEX 01 03:06:58
  TRACK 162 AUDIO
    TITLE "2:cjc105_6547"
    INDEX 01 03:07:06
  TRACK 163 AUDIO
    TITLE "3:cjc105_6548"
    INDEX 01 03:08:60
  TRACK 164 AUDIO
    TITLE "0:"
    INDEX 01 03:10:16
  TRACK 165 AUDIO
    TITLE "2:cjc105_6549"
    INDEX 01 03:10:42
  TRACK 166 AUDIO
    TITLE "3:cjc105_6550"
    INDEX 01 03:12:23
  TRACK 167 AUDIO
    TITLE "0:"
    INDEX 01 03:14:22
  TRACK 168 AUDIO
    TITLE "2:cjc105_6551"
    INDEX 01 03:14:45
  TRACK 169 AUDIO
    TITLE "3:cjc105_6552"
    INDEX 01 03:16:38
  TRACK 170 AUDIO
    TITLE "0:"
    INDEX 01 03:18:18
  TRACK 171 AUDIO
    TITLE "2:cjc105_6553"
    INDEX 01 03:18:33
  TRACK 172 AUDIO
    TITLE "3:cjc105_6554"
    INDEX 01 03:20:21
  TRACK 173 AUDIO
    TITLE "0:"
    INDEX 01 03:21:73
  TRACK 174 AUDIO
    TITLE "2:cjc105_6555"
    INDEX 01 03:22:19
  TRACK 175 AUDIO
    TITLE "3:cjc105_6556"
    INDEX 01 03:24:07
  TRACK 176 AUDIO
    TITLE "0:"
    INDEX 01 03:25:47
  TRACK 177 AUDIO
    TITLE "2:cjc105_6557"
    INDEX 01 03:25:63
  TRACK 178 AUDIO
    TITLE "3:cjc105_6558"
    INDEX 01 03:27:17
  TRACK 179 AUDIO
    TITLE "0:"
    INDEX 01 03:28:57
  TRACK 180 AUDIO
    TITLE "2:cjc105_6559"
    INDEX 01 03:29:06
  TRACK 181 AUDIO
    TITLE "3:cjc105_6560"
    INDEX 01 03:30:35
  TRACK 182 AUDIO
    TITLE "0:"
    INDEX 01 03:32:00
  TRACK 183 AUDIO
    TITLE "2:cjc105_6561"
    INDEX 01 03:32:20
  TRACK 184 AUDIO
    TITLE "3:cjc105_6562"
    INDEX 01 03:33:62
  TRACK 185 AUDIO
    TITLE "0:"
    INDEX 01 03:35:08
  TRACK 186 AUDIO
    TITLE "2:cjc105_6563"
    INDEX 01 03:35:24
  TRACK 187 AUDIO
    TITLE "3:cjc105_6564"
    INDEX 01 03:36:51
  TRACK 188 AUDIO
    TITLE "0:"
    INDEX 01 03:38:17
  TRACK 189 AUDIO
    TITLE "2:cjc105_6565"
    INDEX 01 03:38:38
  TRACK 190 AUDIO
    TITLE "3:cjc105_6566"
    INDEX 01 03:40:12
  TRACK 191 AUDIO
    TITLE "0:"
    INDEX 01 03:42:05
  TRACK 192 AUDIO
    TITLE "2:cjc105_6567"
    INDEX 01 03:42:24
  TRACK 193 AUDIO
    TITLE "3:cjc105_6568"
    INDEX 01 03:43:69
  TRACK 194 AUDIO
    TITLE "0:"
    INDEX 01 03:45:03
  TRACK 195 AUDIO
    TITLE "2:cjc105_6569"
    INDEX 01 03:45:24
  TRACK 196 AUDIO
    TITLE "3:cjc105_6570"
    INDEX 01 03:47:08
  TRACK 197 AUDIO
    TITLE "0:"
    INDEX 01 03:48:64
  TRACK 198 AUDIO
    TITLE "2:cjc105_6571"
    INDEX 01 03:49:10
  TRACK 199 AUDIO
    TITLE "3:cjc105_6572"
    INDEX 01 03:50:55
  TRACK 200 AUDIO
    TITLE "0:"
    INDEX 01 03:52:19
  TRACK 201 AUDIO
    TITLE "2:cjc105_6573"
    INDEX 01 03:52:34
  TRACK 202 AUDIO
    TITLE "3:cjc105_6574"
    INDEX 01 03:54:43
  TRACK 203 AUDIO
    TITLE "0:"
    INDEX 01 03:56:20
  TRACK 204 AUDIO
    TITLE "2:cjc105_6575"
    INDEX 01 03:56:42
  TRACK 205 AUDIO
    TITLE "3:cjc105_6576"
    INDEX 01 03:58:17
  TRACK 206 AUDIO
    TITLE "0:"
    INDEX 01 04:00:10
  TRACK 207 AUDIO
    TITLE "2:cjc105_6577"
    INDEX 01 04:00:32
  TRACK 208 AUDIO
    TITLE "3:cjc105_6578"
    INDEX 01 04:01:41
  TRACK 209 AUDIO
    TITLE "0:"
    INDEX 01 04:03:18
  TRACK 210 AUDIO
    TITLE "2:cjc105_6579"
    INDEX 01 04:03:40
  TRACK 211 AUDIO
    TITLE "3:cjc105_6580"
    INDEX 01 04:04:57
  TRACK 212 AUDIO
    TITLE "0:"
    INDEX 01 04:06:01
  TRACK 213 AUDIO
    TITLE "2:cjc105_6581"
    INDEX 01 04:06:23
  TRACK 214 AUDIO
    TITLE "3:cjc105_6582"
    INDEX 01 04:07:57
  TRACK 215 AUDIO
    TITLE "0:"
    INDEX 01 04:09:21
  TRACK 216 AUDIO
    TITLE "2:cjc105_6583"
    INDEX 01 04:09:43
  TRACK 217 AUDIO
    TITLE "3:cjc105_6584"
    INDEX 01 04:11:28
  TRACK 218 AUDIO
    TITLE "0:"
    INDEX 01 04:13:40
  TRACK 219 AUDIO
    TITLE "2:cjc105_6585"
    INDEX 01 04:13:62
  TRACK 220 AUDIO
    TITLE "3:cjc105_6586"
    INDEX 01 04:15:06
  TRACK 221 AUDIO
    TITLE "0:"
    INDEX 01 04:16:25
  TRACK 222 AUDIO
    TITLE "2:cjc105_6587"
    INDEX 01 04:16:45
  TRACK 223 AUDIO
    TITLE "3:cjc105_6588"
    INDEX 01 04:18:20
  TRACK 224 AUDIO
    TITLE "0:"
    INDEX 01 04:19:45
  TRACK 225 AUDIO
    TITLE "2:cjc105_6589"
    INDEX 01 04:19:64
  TRACK 226 AUDIO
    TITLE "3:cjc105_6590"
    INDEX 01 04:21:42
  TRACK 227 AUDIO
    TITLE "0:"
    INDEX 01 04:23:19
  TRACK 228 AUDIO
    TITLE "2:cjc105_6591"
    INDEX 01 04:23:37
  TRACK 229 AUDIO
    TITLE "3:cjc105_6592"
    INDEX 01 04:25:10
  TRACK 230 AUDIO
    TITLE "0:"
    INDEX 01 04:26:49
  TRACK 231 AUDIO
    TITLE "2:cjc105_6593"
    INDEX 01 04:26:74
  TRACK 232 AUDIO
    TITLE "3:cjc105_6594"
    INDEX 01 04:28:46
  TRACK 233 AUDIO
    TITLE "0:"
    INDEX 01 04:30:09
  TRACK 234 AUDIO
    TITLE "2:cjc105_6595"
    INDEX 01 04:30:29
  TRACK 235 AUDIO
    TITLE "3:cjc105_6596"
    INDEX 01 04:31:58
  TRACK 236 AUDIO
    TITLE "0:"
    INDEX 01 04:33:04
  TRACK 237 AUDIO
    TITLE "2:cjc105_6597"
    INDEX 01 04:33:27
  TRACK 238 AUDIO
    TITLE "3:cjc105_6598"
    INDEX 01 04:35:60
  TRACK 239 AUDIO
    TITLE "0:"
    INDEX 01 04:37:13
  TRACK 240 AUDIO
    TITLE "2:cjc105_6599"
    INDEX 01 04:37:33
  TRACK 241 AUDIO
    TITLE "3:cjc105_6600"
    INDEX 01 04:38:32
  TRACK 242 AUDIO
    TITLE "0:"
    INDEX 01 04:39:30
  TRACK 243 AUDIO
    TITLE "2:cjc105_6601"
    INDEX 01 04:39:53
  TRACK 244 AUDIO
    TITLE "3:cjc105_6602"
    INDEX 01 04:41:39
  TRACK 245 AUDIO
    TITLE "0:"
    INDEX 01 04:42:60
  TRACK 246 AUDIO
    TITLE "2:cjc105_6603"
    INDEX 01 04:43:04
  TRACK 247 AUDIO
    TITLE "3:cjc105_6604"
    INDEX 01 04:44:33
  TRACK 248 AUDIO
    TITLE "0:"
    INDEX 01 04:45:58
  TRACK 249 AUDIO
    TITLE "2:cjc105_6605"
    INDEX 01 04:46:06
  TRACK 250 AUDIO
    TITLE "3:cjc105_6606"
    INDEX 01 04:47:51
  TRACK 251 AUDIO
    TITLE "0:"
    INDEX 01 04:49:03
  TRACK 252 AUDIO
    TITLE "2:cjc105_6607"
    INDEX 01 04:49:22
  TRACK 253 AUDIO
    TITLE "3:cjc105_6608"
    INDEX 01 04:50:65
  TRACK 254 AUDIO
    TITLE "0:"
    INDEX 01 04:52:44
  TRACK 255 AUDIO
    TITLE "2:cjc105_6609"
    INDEX 01 04:52:62
  TRACK 256 AUDIO
    TITLE "3:cjc105_6610"
    INDEX 01 04:54:67
  TRACK 257 AUDIO
    TITLE "0:"
    INDEX 01 04:57:44
